<?xml version="1.0" encoding="UTF-8" standalone="no"?>
<!-- Created with Inkscape (http://www.inkscape.org/) -->

<svg
   xmlns:dc="http://purl.org/dc/elements/1.1/"
   xmlns:cc="http://creativecommons.org/ns#"
   xmlns:rdf="http://www.w3.org/1999/02/22-rdf-syntax-ns#"
   xmlns:svg="http://www.w3.org/2000/svg"
   xmlns="http://www.w3.org/2000/svg"
   xmlns:xlink="http://www.w3.org/1999/xlink"
   xmlns:sodipodi="http://sodipodi.sourceforge.net/DTD/sodipodi-0.dtd"
   xmlns:inkscape="http://www.inkscape.org/namespaces/inkscape"
   width="210mm"
   height="297mm"
   viewBox="0 0 744.09448819 1052.3622047"
   id="svg2"
   version="1.1"
   inkscape:version="0.91 r13725"
   sodipodi:docname="logotype.svg">
  <defs
     id="defs4">
    <linearGradient
       id="linearGradient4189"
       inkscape:collect="always">
      <stop
         id="stop4247"
         offset="0"
         style="stop-color:#feba12;stop-opacity:1;" />
      <stop
         id="stop4249"
         offset="1"
         style="stop-color:#c14c4a;stop-opacity:1" />
    </linearGradient>
    <linearGradient
       inkscape:collect="always"
       id="linearGradient4251">
      <stop
         style="stop-color:#feba12;stop-opacity:1;"
         offset="0"
         id="stop4239" />
      <stop
         style="stop-color:#10afa4;stop-opacity:1"
         offset="1"
         id="stop4241" />
    </linearGradient>
    <linearGradient
       inkscape:collect="always"
       xlink:href="#linearGradient4189"
       id="linearGradient4195"
       x1="62.102425"
       y1="530.24182"
       x2="216.20844"
       y2="530.24182"
       gradientUnits="userSpaceOnUse"
       gradientTransform="matrix(0.63066957,0,0,0.84068687,170.71718,-104.39035)" />
    <linearGradient
       inkscape:collect="always"
       xlink:href="#linearGradient4251"
       id="linearGradient4235"
       x1="198.61206"
       y1="275.05304"
       x2="295.80203"
       y2="275.05304"
       gradientUnits="userSpaceOnUse"
       gradientTransform="matrix(0.74272618,0,0,0.99148839,-211.86189,132.31236)" />
  </defs>
  <sodipodi:namedview
     id="base"
     pagecolor="#ffffff"
     bordercolor="#666666"
     borderopacity="1.0"
     inkscape:pageopacity="0.0"
     inkscape:pageshadow="2"
     inkscape:zoom="0.86953125"
     inkscape:cx="326.12309"
     inkscape:cy="888.01438"
     inkscape:document-units="px"
     inkscape:current-layer="layer1"
     showgrid="false"
     inkscape:window-width="1440"
     inkscape:window-height="818"
     inkscape:window-x="0"
     inkscape:window-y="1"
     inkscape:window-maximized="1" />
  <metadata
     id="metadata7">
    <rdf:RDF>
      <cc:Work
         rdf:about="">
        <dc:format>image/svg+xml</dc:format>
        <dc:type
           rdf:resource="http://purl.org/dc/dcmitype/StillImage" />
        <dc:title></dc:title>
      </cc:Work>
    </rdf:RDF>
  </metadata>
  <g
     inkscape:label="Layer 1"
     inkscape:groupmode="layer"
     id="layer1">
    <g
       id="g4369"
       transform="matrix(1.2336729,0,0,1.2336729,-23.836879,-217.7186)"
       inkscape:export-xdpi="87.839996"
       inkscape:export-ydpi="87.839996">
      <rect
         transform="matrix(0.96574069,0.25950901,-0.0860907,0.9962873,0,0)"
         y="338.47653"
         x="209.88326"
         height="5.8009658"
         width="97.189972"
         id="rect4179"
         style="opacity:1;fill:url(#linearGradient4195);fill-opacity:1;stroke:none;stroke-width:5;stroke-miterlimit:4;stroke-dasharray:none;stroke-dashoffset:0;stroke-opacity:1" />
      <circle
         r="49.668751"
         cy="381.55844"
         cx="136.03288"
         id="path4136"
         style="opacity:1;fill:#feba12;fill-opacity:1;stroke:none;stroke-width:5;stroke-miterlimit:4;stroke-dasharray:none;stroke-dashoffset:0;stroke-opacity:1" />
      <circle
         r="49.668751"
         cy="307.13306"
         cx="270.26056"
         id="path4136-4"
         style="opacity:1;fill:#10afa4;fill-opacity:1;stroke:none;stroke-width:5;stroke-miterlimit:4;stroke-dasharray:none;stroke-dashoffset:0;stroke-opacity:1" />
      <circle
         r="49.668751"
         cy="429.03784"
         cx="302.46182"
         id="path4136-4-6"
         style="opacity:1;fill:#c14c4a;fill-opacity:1;stroke:none;stroke-width:5;stroke-miterlimit:4;stroke-dasharray:none;stroke-dashoffset:0;stroke-opacity:1" />
      <rect
         transform="matrix(0.87933592,-0.476202,0.57812238,0.81595007,0,0)"
         y="402.14847"
         x="-64.347527"
         height="5.7515903"
         width="72.185539"
         id="rect4179-2"
         style="opacity:1;fill:url(#linearGradient4235);fill-opacity:1;stroke:none;stroke-width:5;stroke-miterlimit:4;stroke-dasharray:none;stroke-dashoffset:0;stroke-opacity:1" />
    </g>
    <g
       id="g4344"
       transform="matrix(0.81864232,0,0,0.81864232,-28.496844,17.253204)"
       inkscape:export-xdpi="87.839996"
       inkscape:export-ydpi="87.839996">
      <g
         id="g4318">
        <path
           inkscape:connector-curvature="0"
           id="path4258"
           style="font-style:normal;font-variant:normal;font-weight:bold;font-stretch:normal;font-size:32.5px;line-height:125%;font-family:sans-serif;-inkscape-font-specification:'sans-serif Bold';letter-spacing:0px;word-spacing:0px;fill:#feba12;fill-opacity:1;stroke:none;stroke-width:1px;stroke-linecap:butt;stroke-linejoin:miter;stroke-opacity:1"
           d="m 137.01404,482.39825 21.83594,0 0,4.61792 -7.85523,0 0,19.07471 -6.10962,0 0,-19.07471 -7.87109,0 0,-4.61792 z" />
        <path
           inkscape:connector-curvature="0"
           id="path4260"
           style="font-style:normal;font-variant:normal;font-weight:bold;font-stretch:normal;font-size:32.5px;line-height:125%;font-family:sans-serif;-inkscape-font-specification:'sans-serif Bold';letter-spacing:0px;word-spacing:0px;fill:#feba12;fill-opacity:1;stroke:none;stroke-width:1px;stroke-linecap:butt;stroke-linejoin:miter;stroke-opacity:1"
           d="m 161.73816,488.31744 5.68115,0 0,17.77344 -5.68115,0 0,-17.77344 z m 0,-6.91894 5.68115,0 0,4.63379 -5.68115,0 0,-4.63379 z" />
        <path
           inkscape:connector-curvature="0"
           id="path4262"
           style="font-style:normal;font-variant:normal;font-weight:bold;font-stretch:normal;font-size:32.5px;line-height:125%;font-family:sans-serif;-inkscape-font-specification:'sans-serif Bold';letter-spacing:0px;word-spacing:0px;fill:#feba12;fill-opacity:1;stroke:none;stroke-width:1px;stroke-linecap:butt;stroke-linejoin:miter;stroke-opacity:1"
           d="m 190.77869,495.26813 0,10.82275 -5.71289,0 0,-1.76147 0,-6.52222 q 0,-2.30103 -0.11109,-3.17383 -0.0952,-0.8728 -0.34912,-1.2854 -0.33325,-0.55542 -0.90454,-0.85693 -0.57129,-0.31738 -1.30127,-0.31738 -1.77734,0 -2.79297,1.38061 -1.01562,1.36475 -1.01562,3.79272 l 0,8.7439 -5.68116,0 0,-17.77344 5.68116,0 0,2.60254 q 1.2854,-1.55517 2.72949,-2.28515 1.44409,-0.74585 3.1897,-0.74585 3.07861,0 4.66552,1.88842 1.60279,1.88843 1.60279,5.49073 z" />
        <path
           inkscape:connector-curvature="0"
           id="path4264"
           style="font-style:normal;font-variant:normal;font-weight:bold;font-stretch:normal;font-size:32.5px;line-height:125%;font-family:sans-serif;-inkscape-font-specification:'sans-serif Bold';letter-spacing:0px;word-spacing:0px;fill:#feba12;fill-opacity:1;stroke:none;stroke-width:1px;stroke-linecap:butt;stroke-linejoin:miter;stroke-opacity:1"
           d="m 193.74622,488.31744 5.68115,0 4.77661,12.06055 4.0625,-12.06055 5.68115,0 -7.47436,19.45557 q -1.12671,2.96753 -2.63428,4.14185 -1.4917,1.19018 -3.95142,1.19018 l -3.28491,0 0,-3.72925 1.77734,0 q 1.4441,0 2.09473,-0.4602 0.66651,-0.46021 1.0315,-1.65039 l 0.15869,-0.49195 -7.9187,-18.45581 z" />
      </g>
      <g
         style="fill:#c14c4a;fill-opacity:1"
         id="g4324">
        <path
           inkscape:connector-curvature="0"
           id="path4266"
           style="font-style:normal;font-variant:normal;font-weight:bold;font-stretch:normal;font-size:32.5px;line-height:125%;font-family:sans-serif;-inkscape-font-specification:'sans-serif Bold';letter-spacing:0px;word-spacing:0px;fill:#c14c4a;fill-opacity:1;stroke:none;stroke-width:1px;stroke-linecap:butt;stroke-linejoin:miter;stroke-opacity:1"
           d="m 217.53406,482.39825 6.82373,0 8.61694,16.25 0,-16.25 5.79224,0 0,23.69263 -6.82373,0 -8.61695,-16.25 0,16.25 -5.79223,0 0,-23.69263 z" />
        <path
           inkscape:connector-curvature="0"
           id="path4268"
           style="font-style:normal;font-variant:normal;font-weight:bold;font-stretch:normal;font-size:32.5px;line-height:125%;font-family:sans-serif;-inkscape-font-specification:'sans-serif Bold';letter-spacing:0px;word-spacing:0px;fill:#c14c4a;fill-opacity:1;stroke:none;stroke-width:1px;stroke-linecap:butt;stroke-linejoin:miter;stroke-opacity:1"
           d="m 252.41443,498.09283 q -1.77735,0 -2.68189,0.60303 -0.88867,0.60303 -0.88867,1.77735 0,1.0791 0.71411,1.69799 0.72998,0.60303 2.01538,0.60303 1.60279,0 2.69776,-1.14258 1.09497,-1.15844 1.09497,-2.88818 l 0,-0.65064 -2.95166,0 z m 8.68042,-2.14233 0,10.14038 -5.72876,0 0,-2.63428 q -1.14258,1.61866 -2.5708,2.36451 -1.42822,0.72998 -3.47534,0.72998 -2.76123,0 -4.49097,-1.60279 -1.71387,-1.61865 -1.71387,-4.18945 0,-3.12622 2.14234,-4.58618 2.1582,-1.45996 6.76025,-1.45996 l 3.34839,0 0,-0.44434 q 0,-1.34888 -1.06323,-1.96777 -1.06324,-0.63477 -3.31665,-0.63477 -1.82496,0 -3.396,0.36499 -1.57104,0.36499 -2.91992,1.09497 l 0,-4.33227 q 1.82495,-0.44434 3.66577,-0.66651 1.84082,-0.23803 3.68164,-0.23803 4.80835,0 6.93481,1.90429 2.14234,1.88843 2.14234,6.15723 z" />
        <path
           inkscape:connector-curvature="0"
           id="path4270"
           style="font-style:normal;font-variant:normal;font-weight:bold;font-stretch:normal;font-size:32.5px;line-height:125%;font-family:sans-serif;-inkscape-font-specification:'sans-serif Bold';letter-spacing:0px;word-spacing:0px;fill:#c14c4a;fill-opacity:1;stroke:none;stroke-width:1px;stroke-linecap:butt;stroke-linejoin:miter;stroke-opacity:1"
           d="m 264.10999,488.31744 5.68115,0 4.42749,12.28272 4.41162,-12.28272 5.69702,0 -6.99829,17.77344 -6.23657,0 -6.98242,-17.77344 z" />
        <path
           inkscape:connector-curvature="0"
           id="path4272"
           style="font-style:normal;font-variant:normal;font-weight:bold;font-stretch:normal;font-size:32.5px;line-height:125%;font-family:sans-serif;-inkscape-font-specification:'sans-serif Bold';letter-spacing:0px;word-spacing:0px;fill:#c14c4a;fill-opacity:1;stroke:none;stroke-width:1px;stroke-linecap:butt;stroke-linejoin:miter;stroke-opacity:1"
           d="m 287.54871,488.31744 5.68115,0 0,17.77344 -5.68115,0 0,-17.77344 z m 0,-6.91894 5.68115,0 0,4.63379 -5.68115,0 0,-4.63379 z" />
        <path
           inkscape:connector-curvature="0"
           id="path4274"
           style="font-style:normal;font-variant:normal;font-weight:bold;font-stretch:normal;font-size:32.5px;line-height:125%;font-family:sans-serif;-inkscape-font-specification:'sans-serif Bold';letter-spacing:0px;word-spacing:0px;fill:#c14c4a;fill-opacity:1;stroke:none;stroke-width:1px;stroke-linecap:butt;stroke-linejoin:miter;stroke-opacity:1"
           d="m 310.81287,503.07574 q -1.17432,1.55518 -2.58667,2.28516 -1.41236,0.72998 -3.26905,0.72998 -3.25317,0 -5.37964,-2.55493 -2.12646,-2.5708 -2.12646,-6.53809 0,-3.98315 2.12646,-6.52221 2.12647,-2.55493 5.37964,-2.55493 1.85669,0 3.26905,0.72998 1.41235,0.72998 2.58667,2.30102 l 0,-2.63428 5.71289,0 0,15.98023 q 0,4.28467 -2.71363,6.53808 -2.69775,2.26929 -7.83935,2.26929 -1.66626,0 -3.22144,-0.2539 -1.55517,-0.25391 -3.12622,-0.77759 l 0,-4.42749 q 1.4917,0.85693 2.91992,1.26953 1.42823,0.42847 2.87232,0.42847 2.79297,0 4.09424,-1.22193 1.30127,-1.22192 1.30127,-3.82446 l 0,-1.22193 z m -3.74512,-11.06079 q -1.76148,0 -2.74536,1.30127 -0.98389,1.30127 -0.98389,3.68164 0,2.44385 0.95215,3.71338 0.95215,1.25366 2.7771,1.25366 1.77734,0 2.76123,-1.30126 0.98389,-1.30127 0.98389,-3.66578 0,-2.38037 -0.98389,-3.68164 -0.98389,-1.30127 -2.76123,-1.30127 z" />
        <path
           inkscape:connector-curvature="0"
           id="path4276"
           style="font-style:normal;font-variant:normal;font-weight:bold;font-stretch:normal;font-size:32.5px;line-height:125%;font-family:sans-serif;-inkscape-font-specification:'sans-serif Bold';letter-spacing:0px;word-spacing:0px;fill:#c14c4a;fill-opacity:1;stroke:none;stroke-width:1px;stroke-linecap:butt;stroke-linejoin:miter;stroke-opacity:1"
           d="m 329.98279,498.09283 q -1.77735,0 -2.68189,0.60303 -0.88867,0.60303 -0.88867,1.77735 0,1.0791 0.71411,1.69799 0.72998,0.60303 2.01538,0.60303 1.60279,0 2.69776,-1.14258 1.09497,-1.15844 1.09497,-2.88818 l 0,-0.65064 -2.95166,0 z m 8.68042,-2.14233 0,10.14038 -5.72876,0 0,-2.63428 q -1.14258,1.61866 -2.5708,2.36451 -1.42823,0.72998 -3.47534,0.72998 -2.76123,0 -4.49097,-1.60279 -1.71387,-1.61865 -1.71387,-4.18945 0,-3.12622 2.14234,-4.58618 2.1582,-1.45996 6.76025,-1.45996 l 3.34839,0 0,-0.44434 q 0,-1.34888 -1.06323,-1.96777 -1.06324,-0.63477 -3.31665,-0.63477 -1.82496,0 -3.396,0.36499 -1.57105,0.36499 -2.91992,1.09497 l 0,-4.33227 q 1.82495,-0.44434 3.66577,-0.66651 1.84082,-0.23803 3.68164,-0.23803 4.80835,0 6.93481,1.90429 2.14234,1.88843 2.14234,6.15723 z" />
        <path
           inkscape:connector-curvature="0"
           id="path4278"
           style="font-style:normal;font-variant:normal;font-weight:bold;font-stretch:normal;font-size:32.5px;line-height:125%;font-family:sans-serif;-inkscape-font-specification:'sans-serif Bold';letter-spacing:0px;word-spacing:0px;fill:#c14c4a;fill-opacity:1;stroke:none;stroke-width:1px;stroke-linecap:butt;stroke-linejoin:miter;stroke-opacity:1"
           d="m 350.12073,483.27106 0,5.04638 5.85571,0 0,4.0625 -5.85571,0 0,7.53785 q 0,1.23779 0.49194,1.68212 0.49194,0.42847 1.95191,0.42847 l 2.91992,0 0,4.0625 -4.87183,0 q -3.36426,0 -4.77661,-1.39648 -1.39648,-1.41236 -1.39648,-4.77661 l 0,-7.53785 -2.82471,0 0,-4.0625 2.82471,0 0,-5.04638 5.68115,0 z" />
        <path
           inkscape:connector-curvature="0"
           id="path4280"
           style="font-style:normal;font-variant:normal;font-weight:bold;font-stretch:normal;font-size:32.5px;line-height:125%;font-family:sans-serif;-inkscape-font-specification:'sans-serif Bold';letter-spacing:0px;word-spacing:0px;fill:#c14c4a;fill-opacity:1;stroke:none;stroke-width:1px;stroke-linecap:butt;stroke-linejoin:miter;stroke-opacity:1"
           d="m 359.46765,488.31744 5.68115,0 0,17.77344 -5.68115,0 0,-17.77344 z m 0,-6.91894 5.68115,0 0,4.63379 -5.68115,0 0,-4.63379 z" />
        <path
           inkscape:connector-curvature="0"
           id="path4282"
           style="font-style:normal;font-variant:normal;font-weight:bold;font-stretch:normal;font-size:32.5px;line-height:125%;font-family:sans-serif;-inkscape-font-specification:'sans-serif Bold';letter-spacing:0px;word-spacing:0px;fill:#c14c4a;fill-opacity:1;stroke:none;stroke-width:1px;stroke-linecap:butt;stroke-linejoin:miter;stroke-opacity:1"
           d="m 379.09778,491.95148 q -1.88843,0 -2.88819,1.36474 -0.98388,1.34888 -0.98388,3.90381 0,2.55493 0.98388,3.91968 0.99976,1.34888 2.88819,1.34888 1.85669,0 2.84057,-1.34888 0.98389,-1.36475 0.98389,-3.91968 0,-2.55493 -0.98389,-3.90381 -0.98388,-1.36474 -2.84057,-1.36474 z m 0,-4.0625 q 4.58618,0 7.15698,2.47558 2.58667,2.47559 2.58667,6.85547 0,4.37988 -2.58667,6.85547 -2.5708,2.47559 -7.15698,2.47559 -4.60205,0 -7.20459,-2.47559 -2.58667,-2.47559 -2.58667,-6.85547 0,-4.37988 2.58667,-6.85547 2.60254,-2.47558 7.20459,-2.47558 z" />
        <path
           inkscape:connector-curvature="0"
           id="path4284"
           style="font-style:normal;font-variant:normal;font-weight:bold;font-stretch:normal;font-size:32.5px;line-height:125%;font-family:sans-serif;-inkscape-font-specification:'sans-serif Bold';letter-spacing:0px;word-spacing:0px;fill:#c14c4a;fill-opacity:1;stroke:none;stroke-width:1px;stroke-linecap:butt;stroke-linejoin:miter;stroke-opacity:1"
           d="m 410.85193,495.26813 0,10.82275 -5.71289,0 0,-1.76147 0,-6.52222 q 0,-2.30103 -0.11109,-3.17383 -0.0952,-0.8728 -0.34912,-1.2854 -0.33325,-0.55542 -0.90454,-0.85693 -0.57129,-0.31738 -1.30127,-0.31738 -1.77734,0 -2.79297,1.38061 -1.01562,1.36475 -1.01562,3.79272 l 0,8.7439 -5.68115,0 0,-17.77344 5.68115,0 0,2.60254 q 1.2854,-1.55517 2.72949,-2.28515 1.44409,-0.74585 3.1897,-0.74585 3.07861,0 4.66553,1.88842 1.60278,1.88843 1.60278,5.49073 z" />
      </g>
      <g
         style="fill:#10afa4;fill-opacity:1"
         id="g4336">
        <path
           inkscape:connector-curvature="0"
           id="path4286"
           style="font-style:normal;font-variant:normal;font-weight:bold;font-stretch:normal;font-size:32.5px;line-height:125%;font-family:sans-serif;-inkscape-font-specification:'sans-serif Bold';letter-spacing:0px;word-spacing:0px;fill:#10afa4;fill-opacity:1;stroke:none;stroke-width:1px;stroke-linecap:butt;stroke-linejoin:miter;stroke-opacity:1"
           d="m 416.40613,482.39825 6.10962,0 0,9.02955 9.01367,0 0,-9.02955 6.10962,0 0,23.69263 -6.10962,0 0,-10.04516 -9.01367,0 0,10.04516 -6.10962,0 0,-23.69263 z" />
        <path
           inkscape:connector-curvature="0"
           id="path4288"
           style="font-style:normal;font-variant:normal;font-weight:bold;font-stretch:normal;font-size:32.5px;line-height:125%;font-family:sans-serif;-inkscape-font-specification:'sans-serif Bold';letter-spacing:0px;word-spacing:0px;fill:#10afa4;fill-opacity:1;stroke:none;stroke-width:1px;stroke-linecap:butt;stroke-linejoin:miter;stroke-opacity:1"
           d="m 461.06189,497.15656 0,1.61865 -13.28247,0 q 0.2063,1.99951 1.44409,2.99927 1.23779,0.99975 3.45947,0.99975 1.79322,0 3.66577,-0.52368 1.88843,-0.53955 3.87208,-1.61865 l 0,4.37988 q -2.01539,0.76172 -4.03077,1.14258 -2.01538,0.39673 -4.03076,0.39673 -4.82422,0 -7.5061,-2.44385 -2.66602,-2.45972 -2.66602,-6.88721 0,-4.34814 2.61841,-6.8396 2.63428,-2.49145 7.23633,-2.49145 4.18945,0 6.69678,2.52319 2.52319,2.52319 2.52319,6.74439 z m -5.83984,-1.88843 q 0,-1.61865 -0.95215,-2.60254 -0.93628,-0.99976 -2.45972,-0.99976 -1.65039,0 -2.68188,0.93628 -1.0315,0.92041 -1.2854,2.66602 l 7.37915,0 z" />
        <path
           inkscape:connector-curvature="0"
           id="path4290"
           style="font-style:normal;font-variant:normal;font-weight:bold;font-stretch:normal;font-size:32.5px;line-height:125%;font-family:sans-serif;-inkscape-font-specification:'sans-serif Bold';letter-spacing:0px;word-spacing:0px;fill:#10afa4;fill-opacity:1;stroke:none;stroke-width:1px;stroke-linecap:butt;stroke-linejoin:miter;stroke-opacity:1"
           d="m 465.41003,481.3985 5.68116,0 0,24.69238 -5.68116,0 0,-24.69238 z" />
        <path
           inkscape:connector-curvature="0"
           id="path4292"
           style="font-style:normal;font-variant:normal;font-weight:bold;font-stretch:normal;font-size:32.5px;line-height:125%;font-family:sans-serif;-inkscape-font-specification:'sans-serif Bold';letter-spacing:0px;word-spacing:0px;fill:#10afa4;fill-opacity:1;stroke:none;stroke-width:1px;stroke-linecap:butt;stroke-linejoin:miter;stroke-opacity:1"
           d="m 482.26306,503.52008 0,9.33106 -5.68115,0 0,-24.5337 5.68115,0 0,2.60254 q 1.17432,-1.55517 2.60254,-2.28515 1.42822,-0.74585 3.28491,-0.74585 3.28491,0 5.39551,2.61841 2.1106,2.60253 2.1106,6.71264 0,4.11011 -2.1106,6.72852 -2.1106,2.60254 -5.39551,2.60254 -1.85669,0 -3.28491,-0.72998 -1.42822,-0.74585 -2.60254,-2.30103 z m 3.77686,-11.50513 q -1.82495,0 -2.80884,1.34888 -0.96802,1.33301 -0.96802,3.8562 0,2.5232 0.96802,3.87207 0.98389,1.33301 2.80884,1.33301 1.82495,0 2.7771,-1.33301 0.96801,-1.33301 0.96801,-3.87207 0,-2.53906 -0.96801,-3.87207 -0.95215,-1.33301 -2.7771,-1.33301 z" />
        <path
           inkscape:connector-curvature="0"
           id="path4294"
           style="font-style:normal;font-variant:normal;font-weight:bold;font-stretch:normal;font-size:32.5px;line-height:125%;font-family:sans-serif;-inkscape-font-specification:'sans-serif Bold';letter-spacing:0px;word-spacing:0px;fill:#10afa4;fill-opacity:1;stroke:none;stroke-width:1px;stroke-linecap:butt;stroke-linejoin:miter;stroke-opacity:1"
           d="m 517.61951,497.15656 0,1.61865 -13.28247,0 q 0.20629,1.99951 1.44409,2.99927 1.23779,0.99975 3.45947,0.99975 1.79321,0 3.66577,-0.52368 1.88843,-0.53955 3.87207,-1.61865 l 0,4.37988 q -2.01538,0.76172 -4.03076,1.14258 -2.01538,0.39673 -4.03076,0.39673 -4.82422,0 -7.5061,-2.44385 -2.66602,-2.45972 -2.66602,-6.88721 0,-4.34814 2.61841,-6.8396 2.63428,-2.49145 7.23633,-2.49145 4.18945,0 6.69677,2.52319 2.5232,2.52319 2.5232,6.74439 z m -5.83985,-1.88843 q 0,-1.61865 -0.95215,-2.60254 -0.93627,-0.99976 -2.45971,-0.99976 -1.65039,0 -2.68189,0.93628 -1.03149,0.92041 -1.2854,2.66602 l 7.37915,0 z" />
        <path
           inkscape:connector-curvature="0"
           id="path4296"
           style="font-style:normal;font-variant:normal;font-weight:bold;font-stretch:normal;font-size:32.5px;line-height:125%;font-family:sans-serif;-inkscape-font-specification:'sans-serif Bold';letter-spacing:0px;word-spacing:0px;fill:#10afa4;fill-opacity:1;stroke:none;stroke-width:1px;stroke-linecap:butt;stroke-linejoin:miter;stroke-opacity:1"
           d="m 535.17078,493.15753 q -0.74585,-0.34912 -1.4917,-0.50781 -0.72998,-0.17456 -1.47583,-0.17456 -2.18994,0 -3.38013,1.41235 -1.17432,1.39649 -1.17432,4.01489 l 0,8.18848 -5.68115,0 0,-17.77344 5.68115,0 0,2.91993 q 1.09497,-1.74561 2.50733,-2.53907 1.42822,-0.80932 3.41186,-0.80932 0.28565,0 0.6189,0.0317 0.33325,0.0159 0.96802,0.0952 l 0.0159,5.1416 z" />
      </g>
    </g>
  </g>
</svg>
